<?xml version="1.0" encoding="UTF-8"?>
<svg id="Layer_1" data-name="Layer 1" xmlns="http://www.w3.org/2000/svg" version="1.1" viewBox="0 0 100 100">
  <defs>
    <style>
      .cls-1 {
        fill: #c5b139;
        stroke: #323232;
        stroke-miterlimit: 10;
        stroke-width: 2px;
      }
    </style>
  </defs>
  <path class="cls-1" d="M56,90.9c20.53,1.11,21.24,1.2,23.54,5.25-4.13,2.95-52.64,3.28-57.61.64,1.91-3.68,2.28-3.7,22.92-5.75.12-1.34.14-2.22.11-3.62-.1-4.14-.03-8.38-.12-12.47-.12-6.14.84-11.18-3.45-16.48-3.79-4.68-10.87-5.76-16.67-7.01-14.77-3.18-21.38-10.28-21.82-25.3-.11-3.83-.01-7.41-.04-11.49-.03-5.33,1.62-5.24,5.62-5.28,4.62-.05,9.24.06,14.08.06.18-1.86.24-4.22.51-5.35.51-2.15.39-2.47,3.58-2.48,15.83-.05,31.66-.18,47.5-.18,3.93,0,4.26.43,4.4,8,4.31,0,9.51-.21,14.26.16,1.46.11,3.96.22,4,2.88.12,6.77.49,13.64-.4,20.33-1.62,12.1-10.63,16.78-21.26,18.69-6.58,1.18-11.7,1.37-15.56,6.5s-3.28,15.8-3.35,16.82c-.23,3.79-.24,6.34-.24,16.09ZM63.1,47.56c-3.3-10.7-.44-18.79,8.95-25.4-6.03-1.4-11.23-1.25-14.39-3.71-3.25-2.54-4.52-7.63-7.23-12.68-2.65,5.07-3.8,10.13-6.97,12.54-3.3,2.51-8.54,2.47-14.92,4.03,10.39,6.4,12.11,14.83,9.29,25.27,8.57-6.44,16.52-7.19,25.27-.05ZM22.4,14.46c-4.1,0-8.09-.26-12.01.16-1.21.13-3.06,2.03-3.18,3.26-.38,3.96-.48,8.03,0,11.97,1.19,9.59,9.17,15.67,17.13,13.79-.63-9.48-1.26-18.89-1.94-29.17ZM76.78,43.91c9.61-.27,15.28-5.18,16.08-14.43.33-3.79.38-7.66-.08-11.42-.16-1.32-2.04-3.17-3.41-3.45-2.71-.54-5.65-.43-8.41-.03-1.1.16-2.77,1.77-2.84,2.81-.62,8.7-.93,17.42-1.35,26.52Z"/>
</svg>